<svg xmlns:dc="http://purl.org/dc/elements/1.1/"
  xmlns:cc="http://creativecommons.org/ns#"
  xmlns:rdf="http://www.w3.org/1999/02/22-rdf-syntax-ns#"
  xmlns:svg="http://www.w3.org/2000/svg"
  xmlns="http://www.w3.org/2000/svg"
  xmlns:sodipodi="http://sodipodi.sourceforge.net/DTD/sodipodi-0.dtd"
  xmlns:inkscape="http://www.inkscape.org/namespaces/inkscape" inkscape:version="1.0 (4035a4fb49, 2020-05-01)" sodipodi:docname="bell-test.svg" id="svg6" height="512" width="512" version="1.1" viewBox="0 0 512 512">
  <path d="m 256.01064,512.00654 a 64.003736,64.00387 0 0 0 63.52371,-56.0034 c 0.54403,-4.38426 -3.10418,-8.00048 -7.52044,-8.00048 H 200.00738 c -4.41626,0 -8.06447,3.61622 -7.52044,8.00048 a 64.003736,64.00387 0 0 0 63.5237,56.0034 z" />
  <path d="M 256.01064,47.978471 A 112.00654,112.00677 0 0 0 144.00412,159.98524 v 94.30971 c 0,11.07267 -3.26419,21.85732 -9.40855,31.04188 l -54.499183,81.79694 a 0.57603362,0.57603483 0 0 0 -0.09601,0.32001 l 0.032,0.19203 c 0,0.064 0.064,0.12799 0.128008,0.192 a 0.54403175,0.5440329 0 0 0 0.192011,0.12801 l 0.224013,0.032 H 431.44488 l 0.22401,-0.032 a 0.51202988,0.51203096 0 0 0 0.19201,-0.12801 0.51202988,0.51203096 0 0 0 0.12801,-0.192 l 0.032,-0.22403 a 0.54403175,0.5440329 0 0 0 -0.096,-0.32001 l -54.49918,-81.73294 a 56.003269,56.003387 0 0 1 -9.40855,-31.04188 V 159.98524 A 112.00654,112.00677 0 0 0 256.01064,47.978471 Z M 96.001316,159.98524 a 160.00934,160.00968 0 0 1 320.018674,0 v 94.30971 c 0,1.60009 0.48003,3.13619 1.34407,4.44828 l 54.49919,81.76493 a 48.578835,48.578937 0 0 1 -40.41837,75.49257 H 80.576415 A 48.578835,48.578937 0 0 1 40.158056,340.47615 l 54.499181,-81.73292 a 8.0004669,8.0004836 0 0 0 1.344079,-4.44828 z" fill-rule="evenodd" />
</svg>
