<svg xmlns:dc="http://purl.org/dc/elements/1.1/"
  xmlns:cc="http://creativecommons.org/ns#"
  xmlns:rdf="http://www.w3.org/1999/02/22-rdf-syntax-ns#"
  xmlns:svg="http://www.w3.org/2000/svg"
  xmlns="http://www.w3.org/2000/svg"
  xmlns:sodipodi="http://sodipodi.sourceforge.net/DTD/sodipodi-0.dtd"
  xmlns:inkscape="http://www.inkscape.org/namespaces/inkscape" viewBox="0 0 512 512">
  <path fill-rule="evenodd" d="M 256,0 C 114.56,0 0,117.45766 0,262.47522 c 0,116.1453 73.28,214.2454 175.04,249.02338 12.8,2.29666 17.6,-5.5776 17.6,-12.46758 0,-6.23378 -0.32,-26.90372 -0.32,-48.88602 C 128,462.28448 111.36,434.0684 106.24,419.30418 103.36,411.758 90.88,388.46334 80,382.22954 c -8.96,-4.9214 -21.76,-17.06088 -0.32,-17.38898 20.16,-0.3281 34.56,19.02946 39.36,26.90372 23.04,39.69936 59.84,28.54418 74.56,21.6542 2.24,-17.0609 8.96,-28.54418 16.32,-35.10606 -56.96,-6.56188 -116.48,-29.20038 -116.48,-129.59714 0,-28.54418 9.92,-52.16696 26.24,-70.54022 -2.56,-6.56188 -11.52,-33.46559 2.56,-69.55594 0,0 21.44,-6.88997 70.4,26.90371 20.48,-5.90569 42.24,-8.85853 64,-8.85853 21.76,0 43.52,2.95284 64,8.85853 48.96,-34.12177 70.4,-26.90371 70.4,-26.90371 14.08,36.09035 5.12,62.99406 2.56,69.55594 16.32,18.37326 26.24,41.66794 26.24,70.54022 0,100.72486 -59.84,123.03526 -116.8,129.59714 9.28,8.20234 17.28,23.95086 17.28,48.55792 0,35.10606 -0.32,63.32214 -0.32,72.18068 0,6.88998 4.8,15.09232 17.6,12.46758 A 256.416,262.90174 0 0 0 512,262.47522 C 512,117.45766 397.44,0 256,0 Z" />
</svg>
